<svg viewBox="0 0 24 24" xmlns="http://www.w3.org/2000/svg">
  <path d="M9.5 14.5l5-3.5 4.5 2.5v4c0 1.1-.9 2-2 2H5c-1.1 0-2-.9-2-2v-2l6.5-1z" fill="#0364B8"/>
  <path d="M14.5 11l-5 3.5L3 15.5v-4c0-1.38.56-2.63 1.46-3.54S6.62 6.5 8 6.5c.7 0 1.37.14 1.98.4L14.5 11z" fill="#0078D4"/>
  <path d="M14.5 11l4.5 2.5-5 4-4.5-3L14.5 11z" fill="#1490DF"/>
  <path d="M19 13.5l-4.5-2.5L10 7c.87-.32 1.81-.5 2.79-.5 2.07 0 3.95.79 5.37 2.08.54.49 1.01 1.05 1.39 1.67.34.55.6 1.14.78 1.75L19 13.5z" fill="#28A8EA"/>
</svg>