<svg id="Layer_1" enable-background="new 0 0 512 512" height="512" viewBox="0 0 512 512" width="512" xmlns="http://www.w3.org/2000/svg"><g id="Layer_2_00000133508979606743239950000001214512116537623215_"><g id="Layer_1-2"><g id="VIDEO"><g id="File"><path d="m302.2 0h-191.1c-18.4 0-33.4 15-33.4 33.5v445.1c0 18.5 15 33.4 33.5 33.5h335.5c18.5 0 33.4-15 33.5-33.5l-1-330.6z" fill="#4eb3f2"/><path d="m302.2 0-.5 144.5s.5 3.5 3.5 3.5h174z" fill="#07c"/></g><path d="m45.5 246.7h337.6c7.5 0 13.6 6.1 13.6 13.6v150.8c0 7.5-6.1 13.6-13.6 13.6h-337.6c-7.5 0-13.6-6.1-13.6-13.6v-150.8c0-7.5 6.1-13.6 13.6-13.6z" fill="#07c"/><g fill="#fff"><path d="m39.8 300.4h23.4l16.3 52.1 16.1-52.1h22.7l-26.9 72.4h-24.3z"/><path d="m126.4 300.4h22.4v72.4h-22.4z"/><path d="m165.2 300.4h33.2c6.6 0 11.8.9 15.9 2.7 3.9 1.7 7.4 4.3 10 7.6 2.7 3.4 4.6 7.4 5.7 11.6 1.2 4.6 1.8 9.3 1.8 14 0 7.7-.9 13.7-2.6 18-1.6 4.1-4.1 7.7-7.3 10.7-2.8 2.7-6.3 4.7-10.1 5.8-4.3 1.2-8.8 1.9-13.3 2h-33.2v-72.4zm22.4 16.4v39.5h5.5c4.7 0 8-.5 10-1.5 2.1-1.2 3.8-3.1 4.6-5.4 1.1-2.6 1.7-6.8 1.7-12.6 0-7.7-1.2-12.9-3.8-15.8-2.5-2.8-6.6-4.2-12.4-4.2z"/><path d="m243.5 300.4h60v15.5h-37.6v11.5h34.8v14.8h-34.8v14.3h38.6v16.4h-61z"/><path d="m313.8 336.6c0-11.8 3.3-21 9.9-27.6s15.8-9.9 27.5-9.9c12.1 0 21.3 3.2 27.9 9.7 6.5 6.5 9.8 15.5 9.8 27.2 0 8.5-1.4 15.4-4.3 20.8-2.8 5.3-7.1 9.7-12.4 12.6-5.4 3-12.1 4.5-20.1 4.5-8.2 0-14.9-1.3-20.3-3.9-5.5-2.7-10-7-13-12.3-3.3-5.6-5-12.6-5-21.1zm22.4.2c0 7.3 1.4 12.6 4.1 15.8s6.4 4.8 11.1 4.8c4.8 0 8.5-1.6 11.2-4.7 2.6-3.1 4-8.7 4-16.8 0-6.8-1.4-11.8-4.1-14.9s-6.5-4.7-11.2-4.7c-4.2-.2-8.2 1.6-10.9 4.8-2.8 3-4.2 8.3-4.2 15.7z"/></g></g></g></g></svg>